# xmcd
#
# Track frame offsets:
#	150
#	1269
#	21529
#	59745
#	76673
#	150264
#	189546
#	233791
#
# Disc length: 3617 seconds
#
# Revision: 0
# Processed by: cddbd v1.5.2PL0 Copyright (c) Steve Scherf et al.
# Submitted via: audiograbber 1.83.01
#
DISCID=560e1f08
DTITLE=Klaus Schulze and Pete Namlook - The Dark Side Of The Moog [Boxset 2 - Vol
DTITLE=5-8 2016] [CD 1) - Vol. 5
DYEAR=1996
DGENRE=Electronic
TTITLE0=Psychedelic Brunch I
TTITLE1=Psychedelic Brunch II
TTITLE2=Psychedelic Brunch III
TTITLE3=Psychedelic Brunch IV
TTITLE4=Psychedelic Brunch V
TTITLE5=Psychedelic Brunch VI
TTITLE6=Psychedelic Brunch VII
TTITLE7=Psychedelic Brunch VIII
EXTD=
EXTT0=
EXTT1=
EXTT2=
EXTT3=
EXTT4=
EXTT5=
EXTT6=
EXTT7=
PLAYORDER=
